<svg xmlns="http://www.w3.org/2000/svg" width="200" height="200" viewBox="0 0 200 200">
  <!-- Background circle -->
  <circle cx="100" cy="100" r="100" fill="#f0f0f0"/>
  
  <!-- Head -->
  <circle cx="100" cy="85" r="40" fill="#e0e0e0"/>
  
  <!-- Body -->
  <path d="M100,125 Q60,125 50,180 L150,180 Q140,125 100,125" fill="#e0e0e0"/>
  
  <!-- Face features (simplified) -->
  <circle cx="85" cy="75" r="5" fill="#555"/>
  <circle cx="115" cy="75" r="5" fill="#555"/>
  <path d="M85,100 Q100,110 115,100" stroke="#555" stroke-width="2" fill="none"/>
  
  <!-- Hair (male style) -->
  <path d="M60,60 Q60,30 100,30 Q140,30 140,60 L140,85 Q140,45 100,45 Q60,45 60,85 Z" fill="#555"/>
  
  <!-- Glasses -->
  <circle cx="85" cy="75" r="10" stroke="#333" stroke-width="2" fill="none"/>
  <circle cx="115" cy="75" r="10" stroke="#333" stroke-width="2" fill="none"/>
  <line x1="95" y1="75" x2="105" y2="75" stroke="#333" stroke-width="2"/>
</svg>